<svg xmlns="http://www.w3.org/2000/svg" viewBox="0 0 96 112" fill="none">
  <defs>
    <linearGradient id="glass" x1="25" y1="42" x2="75" y2="96" gradientUnits="userSpaceOnUse">
      <stop stop-color="#FFF8D7" stop-opacity=".62"/>
      <stop offset=".42" stop-color="#C8E9E7" stop-opacity=".2"/>
      <stop offset="1" stop-color="#FFF1BE" stop-opacity=".42"/>
    </linearGradient>
    <linearGradient id="gold" x1="31" y1="65" x2="68" y2="103" gradientUnits="userSpaceOnUse">
      <stop stop-color="#FFF2A1"/>
      <stop offset=".34" stop-color="#FFC43D"/>
      <stop offset="1" stop-color="#D96B13"/>
    </linearGradient>
    <linearGradient id="cork" x1="37" y1="7" x2="59" y2="27" gradientUnits="userSpaceOnUse">
      <stop stop-color="#FFE9A0"/>
      <stop offset=".48" stop-color="#D99A43"/>
      <stop offset="1" stop-color="#8F4A25"/>
    </linearGradient>
    <radialGradient id="aura" cx="0" cy="0" r="1" gradientTransform="matrix(0 44 -39 0 48 69)" gradientUnits="userSpaceOnUse">
      <stop stop-color="#FFC94F" stop-opacity=".32"/>
      <stop offset="1" stop-color="#FFC94F" stop-opacity="0"/>
    </radialGradient>
    <filter id="glow" x="4" y="15" width="88" height="93" color-interpolation-filters="sRGB" filterUnits="userSpaceOnUse">
      <feGaussianBlur stdDeviation="3.5"/>
    </filter>
    <clipPath id="bottle">
      <path d="M37 31h22v12l13.6 16.4A19 19 0 0 1 77 71v16a17 17 0 0 1-17 17H36a17 17 0 0 1-17-17V71a19 19 0 0 1 4.4-11.6L37 43V31Z"/>
    </clipPath>
  </defs>
  <ellipse cx="48" cy="68" rx="39" ry="43" fill="url(#aura)"/>
  <path d="M37 31h22v12l13.6 16.4A19 19 0 0 1 77 71v16a17 17 0 0 1-17 17H36a17 17 0 0 1-17-17V71a19 19 0 0 1 4.4-11.6L37 43V31Z" fill="#F8EFD5" fill-opacity=".19" stroke="#FFF2C7" stroke-opacity=".86" stroke-width="2.5"/>
  <g clip-path="url(#bottle)">
    <path d="M17 68c7-4 13 3 21 0 8-4 14 3 22 0 7-3 13 2 20 0v40H17V68Z" fill="url(#gold)"/>
    <path d="M20 72c8-4 13 2 20 0 8-3 13 2 20 0 7-2 11 2 16 0" stroke="#FFF6B8" stroke-opacity=".8" stroke-width="2" stroke-linecap="round"/>
    <circle cx="34" cy="86" r="2.1" fill="#FFF6B8" fill-opacity=".9"/>
    <circle cx="63" cy="79" r="1.5" fill="#FFF6B8" fill-opacity=".85"/>
    <circle cx="51" cy="94" r="1.2" fill="#FFF6B8" fill-opacity=".8"/>
  </g>
  <path d="M37 31h22v12l13.6 16.4A19 19 0 0 1 77 71v16a17 17 0 0 1-17 17H36a17 17 0 0 1-17-17V71a19 19 0 0 1 4.4-11.6L37 43V31Z" stroke="#FFE9A8" stroke-width="2.2"/>
  <path d="M37 31V22c0-1.1.9-2 2-2h18c1.1 0 2 .9 2 2v9" fill="url(#glass)" stroke="#FFF2C7" stroke-opacity=".8" stroke-width="2"/>
  <path d="M36 9.5A2.5 2.5 0 0 1 38.5 7h19A2.5 2.5 0 0 1 60 9.5v8a2.5 2.5 0 0 1-2.5 2.5h-19a2.5 2.5 0 0 1-2.5-2.5v-8Z" fill="url(#cork)" stroke="#FFE6A0" stroke-width="1.6"/>
  <path d="M34 20h28v4a4 4 0 0 1-4 4H38a4 4 0 0 1-4-4v-4Z" fill="#A75F2D" stroke="#F6D282" stroke-width="1.7"/>
  <path d="M29 69v19c0 7 4 12 10 14" stroke="#FFF9E5" stroke-opacity=".68" stroke-width="3" stroke-linecap="round"/>
  <path d="m70 48 2.1 4.9L77 55l-4.9 2.1L70 62l-2.1-4.9L63 55l4.9-2.1L70 48Z" fill="#FFF5C2"/>
  <path d="m25 47 1.2 2.8L29 51l-2.8 1.2L25 55l-1.2-2.8L21 51l2.8-1.2L25 47Z" fill="#FFC846"/>
  <path d="M30 64c3-5 8-7 13-7" stroke="#FFF8DE" stroke-opacity=".78" stroke-width="2" stroke-linecap="round"/>
</svg>
